<?xml version="1.0" encoding="UTF-8" standalone="no"?>
<svg
   xmlns:osb="http://www.openswatchbook.org/uri/2009/osb"
   xmlns:dc="http://purl.org/dc/elements/1.1/"
   xmlns:cc="http://creativecommons.org/ns#"
   xmlns:rdf="http://www.w3.org/1999/02/22-rdf-syntax-ns#"
   xmlns:svg="http://www.w3.org/2000/svg"
   xmlns="http://www.w3.org/2000/svg"
   xmlns:xlink="http://www.w3.org/1999/xlink"
   xmlns:sodipodi="http://sodipodi.sourceforge.net/DTD/sodipodi-0.dtd"
   xmlns:inkscape="http://www.inkscape.org/namespaces/inkscape"
   width="285.43628"
   height="285.04657"
   viewBox="0 0 75.521677 75.418572"
   version="1.1"
   id="svg887"
   inkscape:version="1.0.1 (3bc2e813f5, 2020-09-07)"
   sodipodi:docname="wird.svg">
  <defs
     id="defs881">
    <marker
       style="overflow:visible"
       id="marker4679"
       refX="0"
       refY="0"
       orient="auto"
       inkscape:stockid="Arrow1Lstart"
       inkscape:isstock="true">
      <path
         transform="matrix(0.8,0,0,0.8,10,0)"
         style="fill:#ff0000;fill-opacity:1;fill-rule:evenodd;stroke:#ff0000;stroke-width:1pt;stroke-opacity:1"
         d="M 0,0 5,-5 -12.5,0 5,5 Z"
         id="path4677" />
    </marker>
    <marker
       style="overflow:visible"
       id="Arrow1Lstart"
       refX="0"
       refY="0"
       orient="auto"
       inkscape:stockid="Arrow1Lstart"
       inkscape:isstock="true">
      <path
         transform="matrix(0.8,0,0,0.8,10,0)"
         style="fill-rule:evenodd;stroke:#000000;stroke-width:1pt"
         d="M 0,0 5,-5 -12.5,0 5,5 Z"
         id="path4407" />
    </marker>
    <linearGradient
       id="linearGradient3315"
       osb:paint="solid">
      <stop
         style="stop-color:#ff0000;stop-opacity:1;"
         offset="0"
         id="stop3313" />
    </linearGradient>
    <inkscape:path-effect
       effect="powerclip"
       id="path-effect2850"
       is_visible="true"
       lpeversion="1"
       inverse="true"
       flatten="false"
       hide_clip="false"
       message="Use fill-rule evenodd on &lt;b&gt;fill and stroke&lt;/b&gt; dialog if no flatten result after convert clip to paths." />
    <inkscape:path-effect
       effect="spiro"
       id="path-effect2708"
       is_visible="true"
       lpeversion="1" />
    <inkscape:path-effect
       effect="spiro"
       id="path-effect2700"
       is_visible="true"
       lpeversion="1" />
    <linearGradient
       inkscape:collect="always"
       id="linearGradient1817-5-0">
      <stop
         style="stop-color:#fae9bd;stop-opacity:1"
         offset="0"
         id="stop1828" />
      <stop
         style="stop-color:#f2bc00;stop-opacity:1"
         offset="1"
         id="stop1830" />
    </linearGradient>
    <linearGradient
       id="linearGradient1466"
       osb:paint="solid">
      <stop
         style="stop-color:#ff0000;stop-opacity:1;"
         offset="0"
         id="stop1464" />
    </linearGradient>
    <linearGradient
       inkscape:collect="always"
       xlink:href="#linearGradient1817-5-0"
       id="linearGradient1840"
       gradientUnits="userSpaceOnUse"
       x1="2.7672696"
       y1="-51.069077"
       x2="97.767265"
       y2="-51.069077"
       gradientTransform="translate(-14.429193,-7.7870737)" />
    <linearGradient
       inkscape:collect="always"
       xlink:href="#linearGradient1817-5-0"
       id="linearGradient2042"
       gradientUnits="userSpaceOnUse"
       gradientTransform="matrix(0,0.82583577,-0.82583571,0,8.9297967,-6.6601221)"
       x1="2.7672696"
       y1="-51.069077"
       x2="97.767265"
       y2="-51.069077" />
    <clipPath
       clipPathUnits="userSpaceOnUse"
       id="clipPath2846">
      <path
         style="display:none;fill:#ffffff;fill-opacity:1;stroke-width:0.0899197"
         d="m 14.213308,142.1913 c 0.29673,-0.0511 1.10601,-0.17676 1.7984,-0.27926 1.91946,-0.28419 4.18529,-0.83638 5.84478,-1.42441 0.4451,-0.15772 0.99136,-0.34962 1.21392,-0.42646 1.38369,-0.47774 4.882411,-2.28687 6.442101,-3.33111 2.728089,-1.82651 4.845878,-3.65606 7.160199,-6.18565 1.301951,-1.42307 2.116899,-2.47153 3.42479,-4.40607 1.30819,-1.935 2.841721,-4.83313 3.473371,-6.56414 0.108278,-0.29673 0.23812,-0.64067 0.288528,-0.76431 0.19911,-0.48838 0.964951,-2.87303 1.140661,-3.55184 0.598699,-2.31272 0.849749,-3.81838 1.13651,-6.81599 0.121621,-1.27135 0.0547,-4.21649 -0.136279,-5.99756 -0.166571,-1.55351 -0.532111,-3.860332 -0.69106,-4.361111 -0.0314,-0.0989 -0.109482,-0.422622 -0.173511,-0.71936 -0.349239,-1.618491 -1.30075,-4.403013 -2.074079,-6.069576 -0.626462,-1.350076 -1.345912,-2.789277 -1.595742,-3.19215 -0.437978,-0.706295 -0.489799,-0.792417 -0.648269,-1.077347 -0.4162,-0.748387 -1.674881,-2.547329 -2.54259,-3.633956 -3.739769,-4.683316 -9.51356,-9.06739 -14.39535,-10.93051 -0.46984,-0.179305 -0.93517,-0.359473 -1.03408,-0.40037 -0.69484,-0.287287 -1.69051,-0.609311 -3.19215,-1.032417 -3.59735,-1.013603 -7.36857,-1.415576 -11.4594198,-1.221462 -1.1345498,0.05384 -2.0875398,0.113159 -2.1177499,0.131834 -0.0302,0.01868 -0.4170201,0.07851 -0.8595799,0.132958 -1.7125302,0.210714 -3.2775101,0.534562 -5.39055409,1.115483 -1.44877801,0.398302 -2.33829701,0.689097 -2.97326191,0.971992 -0.2010712,0.08959 -0.3928841,0.162883 -0.4262422,0.162883 -0.03332,0 -0.7315859,0.32371 -1.5516048,0.719357 -0.820021,0.395645 -1.5052371,0.719357 -1.5227051,0.719357 -0.03969,0 -1.8392709,1.041948 -2.7429561,1.588135 -0.3709188,0.224182 -1.2326782,0.81842 -1.9150222,1.320528 -0.68235,0.50211 -1.336825,0.975267 -1.454401,1.051459 -0.117576,0.07619 -0.591128,0.485966 -1.05233,0.910609 -0.461202,0.42464 -1.073891,0.963546 -1.36154,1.197567 -0.702569,0.571604 -2.793488,2.903869 -3.793679,4.231572 -0.807103,1.07139 -0.987677,1.331206 -1.606385,2.311368 -0.179503,0.284371 -0.460806,0.72948 -0.625123,0.989121 -0.613442,0.969325 -1.183157,2.048473 -1.720856,3.259592 -0.131735,0.296728 -0.272379,0.601605 -0.312527,0.677487 -0.163642,0.30928 -0.908175,2.269202 -1.245618,3.278979 -0.849519,2.542135 -1.278769,4.434596 -1.652045,7.283498 -0.16513,1.2603 -0.200715,1.97061 -0.202724,4.04638 -0.0014,1.46661 0.04327,2.8744 0.107062,3.372 0.06022,0.46983 0.150658,1.21841 0.200967,1.66351 0.27926,2.47075 1.213646,5.92829 2.320694,8.58734 0.755655,1.815 0.960905,2.24688 1.858967,3.9115 1.101099,2.04097 3.077759,4.90846 4.431897,6.42926 2.796144,3.14027 5.786648,5.62489 9.3502072,7.76849 0.5622192,0.3382 3.6418412,1.81115 4.067642,1.94552 0.123635,0.039 0.5080442,0.178 0.8542332,0.30884 2.19522292,0.82968 2.76448592,1.00631 5.1254249,1.59028 1.36513,0.33766 4.04307,0.70728 6.0246201,0.83154 1.0022398,0.0628 5.6607996,-0.0298 6.2044596,-0.12338 z"
         id="path2848" />
    </clipPath>
    <linearGradient
       inkscape:collect="always"
       xlink:href="#linearGradient1817-5-0"
       id="linearGradient3512"
       x1="69.637085"
       y1="103.85166"
       x2="145.51903"
       y2="103.85166"
       gradientUnits="userSpaceOnUse"
       gradientTransform="matrix(0.97629725,0,0,0.97629725,-1.0662578,-209.31078)" />
    <filter
       inkscape:collect="always"
       style="color-interpolation-filters:sRGB"
       id="filter5100"
       x="-0.047817349"
       width="1.0972167"
       y="-0.047535181"
       height="1.0995709">
      <feGaussianBlur
         inkscape:collect="always"
         stdDeviation="1.1446313"
         id="feGaussianBlur5102" />
    </filter>
    <filter
       inkscape:collect="always"
       style="color-interpolation-filters:sRGB"
       id="filter1692"
       x="-0.016035402"
       width="1.0320708"
       y="-0.01633363"
       height="1.0326673">
      <feGaussianBlur
         inkscape:collect="always"
         stdDeviation="0.41648604"
         id="feGaussianBlur1694" />
    </filter>
    <linearGradient
       inkscape:collect="always"
       xlink:href="#linearGradient1817-5-0"
       id="linearGradient3656-4"
       x1="107.84265"
       y1="69.821693"
       x2="107.84265"
       y2="138.4108"
       gradientUnits="userSpaceOnUse"
       gradientTransform="matrix(0.94270537,0,0,0.94270537,6.2569158,5.8109394)" />
    <linearGradient
       inkscape:collect="always"
       xlink:href="#linearGradient1817-5-0"
       id="linearGradient3656-4-9"
       x1="70.620667"
       y1="104.85374"
       x2="143.37839"
       y2="104.85374"
       gradientUnits="userSpaceOnUse"
       gradientTransform="matrix(0,0.94270537,-0.94270537,0,136.60702,-63.159748)" />
    <linearGradient
       inkscape:collect="always"
       xlink:href="#linearGradient1817-5-0"
       id="linearGradient1091"
       x1="37.81509"
       y1="3.5690811"
       x2="37.760838"
       y2="72.00383"
       gradientUnits="userSpaceOnUse" />
    <linearGradient
       inkscape:collect="always"
       xlink:href="#linearGradient1817-5-0"
       id="linearGradient1115"
       gradientUnits="userSpaceOnUse"
       gradientTransform="matrix(0.94270537,0,0,0.94270537,6.2569158,5.8109394)"
       x1="107.84256"
       y1="67.737396"
       x2="107.90011"
       y2="140.65884" />
    <linearGradient
       inkscape:collect="always"
       xlink:href="#linearGradient1817-5-0"
       id="linearGradient1145"
       gradientUnits="userSpaceOnUse"
       gradientTransform="matrix(0.94270537,0,0,0.94270537,6.2569158,5.8109394)"
       x1="107.84256"
       y1="67.737396"
       x2="107.90011"
       y2="140.65884" />
    <filter
       inkscape:collect="always"
       style="color-interpolation-filters:sRGB"
       id="filter1481"
       x="-0.035581189"
       width="1.0711624"
       y="-0.025904335"
       height="1.0518087">
      <feGaussianBlur
         inkscape:collect="always"
         stdDeviation="0.55165896"
         id="feGaussianBlur1483" />
    </filter>
  </defs>
  <sodipodi:namedview
     id="base"
     pagecolor="#ffffff"
     bordercolor="#666666"
     borderopacity="1.0"
     inkscape:pageopacity="0.0"
     inkscape:pageshadow="2"
     inkscape:zoom="1.4142136"
     inkscape:cx="-59.646116"
     inkscape:cy="270.74271"
     inkscape:document-units="px"
     inkscape:current-layer="g1493"
     inkscape:document-rotation="0"
     showgrid="false"
     units="px"
     width="50px"
     scale-x="2"
     inkscape:pagecheckerboard="true"
     objecttolerance="10"
     inkscape:window-width="1920"
     inkscape:window-height="1017"
     inkscape:window-x="1912"
     inkscape:window-y="109"
     inkscape:window-maximized="1"
     showborder="true"
     inkscape:snap-smooth-nodes="true"
     inkscape:object-paths="true"
     inkscape:snap-intersection-paths="true"
     fit-margin-top="0"
     fit-margin-left="0"
     fit-margin-right="0"
     fit-margin-bottom="0"
     inkscape:snap-bbox="false"
     inkscape:bbox-nodes="false"
     inkscape:showpageshadow="false" />
  <metadata
     id="metadata884">
    <rdf:RDF>
      <cc:Work
         rdf:about="">
        <dc:format>image/svg+xml</dc:format>
        <dc:type
           rdf:resource="http://purl.org/dc/dcmitype/StillImage" />
        <dc:title></dc:title>
      </cc:Work>
    </rdf:RDF>
  </metadata>
  <g
     inkscape:groupmode="layer"
     id="layer5"
     inkscape:label="Layer 3"
     style="display:inline;opacity:1"
     transform="translate(-70.159841,-66.252609)">
    <path
       id="path3336-7"
       style="display:inline;opacity:1;fill:none;fill-opacity:1;stroke:#ff0000;stroke-width:3.57188;stroke-miterlimit:4;stroke-dasharray:none;stroke-opacity:1;filter:url(#filter5100)"
       d="M 142.1372,104.11624 A 34.294548,34.294548 0 0 1 107.84265,138.41079 34.294548,34.294548 0 0 1 73.5481,104.11624 34.294548,34.294548 0 0 1 107.84265,69.821693 34.294548,34.294548 0 0 1 142.1372,104.11624 Z"
       transform="rotate(180,107.90879,104.11624)" />
    <circle
       style="fill:none;fill-opacity:1;stroke:url(#linearGradient3512);stroke-width:2.4467;stroke-miterlimit:4;stroke-dasharray:none;stroke-opacity:1"
       id="path3336"
       cx="103.96189"
       cy="-107.92068"
       transform="rotate(90)"
       r="34.294548" />
  </g>
  <g
     inkscape:groupmode="layer"
     id="g1137"
     inkscape:label="Layer 4 copy"
     transform="translate(-70.159841,-66.252609)"
     style="display:inline;opacity:1">
    <path
       id="path1135"
       style="display:inline;opacity:1;fill:none;fill-opacity:1;stroke:#ff0000;stroke-width:1.07685413;stroke-miterlimit:4;stroke-dasharray:none;stroke-opacity:1;filter:url(#filter1481)"
       d="m 118.25917,79.589752 c -2.04663,0.648374 -4.5812,1.827006 -5.81617,2.76656 -0.16317,0.124146 -0.54074,0.389697 -0.83887,0.589948 -1.05883,0.7112 -3.02325,2.366629 -4.29575,3.620059 -1.51997,1.497186 -3.22921,3.495313 -4.601,5.431284 -0.88501,1.248995 -1.62795,2.59762 -2.32193,3.962035 -1.090769,2.144545 -2.051403,4.359492 -2.88347,6.617042 -0.464902,1.26136 -0.816599,2.57453 -1.173665,3.85837 -0.417731,1.50196 -0.590136,3.10447 -0.964246,4.64055 -0.12788,0.52507 -0.194202,1.2515 -0.244199,1.84667 -0.02446,0.29123 -0.05316,0.56488 -0.07906,0.81837 -0.07458,0.72989 0.09355,-1.42658 -0.251456,1.76404 -2.115817,2.02977 -2.195257,2.05921 -3.071414,3.061 -0.209593,0.23598 -0.446339,0.53272 -0.52613,0.65961 -0.0798,0.12689 -0.22734,0.33226 -0.327855,0.45647 -0.305098,0.377 -0.940545,1.60422 -1.20279,2.48693 -0.215626,0.72579 -0.275816,1.49606 -0.287908,2.25311 -0.0098,0.6118 0.03579,1.23135 0.174399,1.82732 0.165313,0.7108 0.473018,1.38319 0.775068,2.04751 0.04841,0.10648 0.101882,0.21128 0.165633,0.30934 0.08143,0.12525 0.06799,0.24093 0.27524,0.35369 0.293869,0.15989 0.815527,0.56764 1.126603,0.7002 0.854643,0.3642 1.815914,0.45234 2.732654,0.51866 0.962359,0.0696 1.96193,-0.0987 2.858641,-0.45501 2.724635,-1.08251 5.454775,-2.43261 7.817085,-4.2172 1.00173,-0.75675 2.02765,-1.57223 2.92086,-2.44604 0.64403,-0.63004 1.15845,-1.31689 1.83166,-1.90876 0.41179,-0.36203 0.74375,-0.80657 1.09318,-1.2291 0.38002,-0.45951 0.71816,-0.95227 1.08977,-1.4186 0.35746,-0.44856 0.76189,-0.86029 1.09614,-1.3264 0.78747,-1.09813 1.44669,-2.47536 2.12342,-3.64647 1.36855,-1.62426 2.29029,-4.34825 2.78867,-5.95412 0.16906,-0.55467 0.69859,-2.00158 0.8224,-2.56807 0.11387,-0.52099 0.32892,-0.94134 0.42413,-1.37591 0.47324,-2.16002 0.63346,-3.45787 0.99335,-5.322482 9.3e-4,-0.0048 0.002,-0.0097 0.003,-0.01451 0.16592,-0.860506 0.23812,-1.597868 0.37894,-2.393155 0.13864,-0.723467 0.28189,-1.41407 0.32314,-2.106976 0.029,-0.105091 -0.0328,-0.21745 0.14343,-0.308506 1.74032,-1.617937 2.69041,-2.358166 3.17669,-2.995791 0.76667,-1.002114 1.03041,-1.401251 1.11997,-1.694819 0.0329,-0.107769 0.10867,-0.253054 0.16806,-0.322984 0.14732,-0.173515 0.60036,-1.535635 0.72294,-2.173692 0.18996,-0.988699 -0.0737,-3.622491 -0.40337,-4.03122 -0.049,-0.06079 -0.11596,-0.235499 -0.14857,-0.388263 -0.14502,-0.678085 -0.79684,-1.585218 -1.45076,-2.019264 -0.91063,-0.604442 -2.18078,-0.740989 -3.3151,-0.775068 -0.99414,-0.02987 -1.9928,0.203263 -2.94094,0.503636 z m 3.01115,6.117677 c 0.17486,-0.02236 0.41925,0.09374 0.63233,0.316166 0.20026,0.208989 0.24418,0.337587 0.27379,0.801858 0.0287,0.451869 -0.008,0.671317 -0.2012,1.20084 -0.12999,0.356404 -0.3156,0.773025 -0.41262,0.925598 -0.097,0.152567 -0.20093,0.278921 -0.23091,0.281088 -0.1082,0.0072 -0.17121,-0.484117 -0.24456,-1.90137 -0.0595,-1.149372 -0.0526,-1.466233 0.0351,-1.554516 0.0391,-0.03937 0.0898,-0.06221 0.14809,-0.06967 z m -2.1732,0.09597 -0.0112,0.974802 c 0.0333,0.638294 -0.0686,1.479682 -0.13412,2.394049 -0.0469,0.655174 -0.15058,1.524991 -0.24877,2.234425 -0.0561,0.169205 -0.59978,0.453552 -0.9099,0.665875 -0.40613,0.278056 -0.82029,0.535247 -1.24399,0.795491 -0.4237,0.260244 -1.01119,0.531853 -1.2981,0.765248 -0.28691,0.233395 -0.42066,0.303277 -0.47902,0.527088 -0.0584,0.223811 0.0434,0.492885 0.10135,0.664801 0.0579,0.171916 0.10646,0.287749 0.27612,0.436267 0.16966,0.148518 0.34828,0.362688 0.47128,0.500899 0.12301,0.138211 0.184,0.239172 0.27196,0.323165 0.088,0.08399 0.12842,0.14394 0.244,0.186847 0.11558,0.04291 0.24366,0.0905 0.43169,0.02482 0.18803,-0.06568 0.96409,-0.422822 1.3244,-0.554024 0.12189,-0.04439 0.11516,0.02183 0.16617,0.0075 0.01,0.156083 0.0437,0.181088 0.0371,0.344973 -0.0134,0.333741 -0.0937,0.810732 -0.18143,1.113544 -0.70763,2.372558 -1.04301,4.848811 -1.71963,7.114661 -1.27547,4.27126 -3.17134,8.00797 -5.31111,10.96537 -3.40907,4.71171 -8.51608,6.95841 -11.420671,7.95079 -0.208223,0.042 -0.565357,0.19486 -0.968927,0.33244 -0.759533,0.25891 -1.835733,0.52323 -1.932101,0.36404 -0.09007,-0.15727 -0.120256,-0.25806 -0.107707,-0.49749 0.0087,-0.143 0.01987,-0.44719 0.03476,-0.60776 0.0314,-0.3386 0.05879,-0.75002 0.115165,-1.29214 0.04666,-0.44868 0.120376,-0.98191 0.168244,-1.68199 0.03653,-0.53429 0.1267,-0.80981 0.164122,-1.43036 0,0 -0.02101,-0.3125 0.111714,-0.36632 0.723579,-0.29342 2.311638,-0.95141 2.934161,-1.24218 0.62252,-0.29077 0.62177,-0.28244 0.83324,-0.42689 0.21147,-0.14445 0.36995,-0.23877 0.4493,-0.39816 0.0794,-0.15939 0.072,-0.30824 0.0367,-0.46655 -0.0353,-0.15831 -0.15469,-0.27959 -0.24966,-0.43916 -0.095,-0.15957 -0.21751,-0.35422 -0.32184,-0.517 -0.10433,-0.16278 -0.19372,-0.30967 -0.30354,-0.45998 -0.10982,-0.15031 -0.25861,-0.33612 -0.35516,-0.44043 -0.09655,-0.10431 -0.107547,-0.11972 -0.208787,-0.19686 -0.10124,-0.0771 -0.225826,-0.27072 -0.407352,-0.24776 -0.181526,0.023 -0.476917,0.13791 -0.760685,0.28289 -0.283768,0.14498 -0.477964,0.27239 -0.97627,0.37598 -0.170563,-0.10308 0.0099,-0.37828 0.196029,-1.945 0.428049,-3.76696 2.196905,-8.5426 3.994405,-12.546704 0.74395,-1.657208 1.72654,-3.207517 2.78164,-4.686216 0.49418,-0.692575 1.10241,-1.296222 1.65176,-1.945902 0.17858,-0.211196 0.17352,-0.240288 0.53454,-0.634607 0.18578,-0.202914 0.28396,-0.251632 0.39292,-0.353438 0.0519,-0.0485 0,0 0.19738,-0.18798 1.32332,-1.220592 2.77338,-2.249512 4.3357,-3.076394 0.4911,-0.25992 0.91479,-0.507726 0.94118,-0.550487 0.0265,-0.04279 0.10026,-0.07745 0.16418,-0.07745 0.0952,0 1.402,-0.577096 1.91403,-0.845219 0.0733,-0.03834 0.39793,-0.170771 0.72099,-0.29424 1.73581,-0.663399 2.56069,-0.909842 3.09491,-0.924624 z M 94.581475,120.02956 c 0.05375,0.0179 0.124545,0.16323 0.15735,0.32298 0.08653,0.42171 0.254394,3.46518 0.196324,3.55917 -0.08527,0.13792 -0.578886,0.0858 -0.870548,-0.0921 -0.320627,-0.19549 -0.604562,-0.74546 -0.607485,-1.17551 -0.0042,-0.66115 0.871919,-2.69875 1.124359,-2.61457 z"
       sodipodi:nodetypes="csssaasssssccssaaaaasssssssaasccssssccccscsscsaaccccscsscccssscazzzzzzzzzscscscsccsssccszzzzzzzzzzzcccsssccscssccscccsscc" />
  </g>
  <g
     inkscape:groupmode="layer"
     id="g1487"
     inkscape:label="Layer 4 copy copy"
     transform="translate(-70.159841,-66.252609)"
     style="display:inline;opacity:1">
    <path
       id="path1485"
       style="display:inline;opacity:1;fill:none;fill-opacity:1;stroke:#ff0000;stroke-width:1.07685;stroke-miterlimit:4;stroke-dasharray:none;stroke-opacity:1;filter:url(#filter1481)"
       d="m 118.25917,79.589752 c -2.04663,0.648374 -4.5812,1.827006 -5.81617,2.76656 -0.16317,0.124146 -0.54074,0.389697 -0.83887,0.589948 -1.05883,0.7112 -3.02325,2.366629 -4.29575,3.620059 -1.51997,1.497186 -3.22921,3.495313 -4.601,5.431284 -0.88501,1.248995 -1.62795,2.59762 -2.32193,3.962035 -1.090769,2.144545 -2.051403,4.359492 -2.88347,6.617042 -0.464902,1.26136 -0.816599,2.57453 -1.173665,3.85837 -0.417731,1.50196 -0.590136,3.10447 -0.964246,4.64055 -0.12788,0.52507 -0.194202,1.2515 -0.244199,1.84667 -0.02446,0.29123 -0.05316,0.56488 -0.07906,0.81837 -0.07458,0.72989 0.09355,-1.42658 -0.251456,1.76404 -2.115817,2.02977 -2.195257,2.05921 -3.071414,3.061 -0.209593,0.23598 -0.446339,0.53272 -0.52613,0.65961 -0.0798,0.12689 -0.22734,0.33226 -0.327855,0.45647 -0.305098,0.377 -0.940545,1.60422 -1.20279,2.48693 -0.215626,0.72579 -0.275816,1.49606 -0.287908,2.25311 -0.0098,0.6118 0.03579,1.23135 0.174399,1.82732 0.165313,0.7108 0.473018,1.38319 0.775068,2.04751 0.04841,0.10648 0.101882,0.21128 0.165633,0.30934 0.08143,0.12525 0.06799,0.24093 0.27524,0.35369 0.293869,0.15989 0.815527,0.56764 1.126603,0.7002 0.854643,0.3642 1.815914,0.45234 2.732654,0.51866 0.962359,0.0696 1.96193,-0.0987 2.858641,-0.45501 2.724635,-1.08251 5.454775,-2.43261 7.817085,-4.2172 1.00173,-0.75675 2.02765,-1.57223 2.92086,-2.44604 0.64403,-0.63004 1.15845,-1.31689 1.83166,-1.90876 0.41179,-0.36203 0.74375,-0.80657 1.09318,-1.2291 0.38002,-0.45951 0.71816,-0.95227 1.08977,-1.4186 0.35746,-0.44856 0.76189,-0.86029 1.09614,-1.3264 0.78747,-1.09813 1.44669,-2.47536 2.12342,-3.64647 1.36855,-1.62426 2.29029,-4.34825 2.78867,-5.95412 0.16906,-0.55467 0.69859,-2.00158 0.8224,-2.56807 0.11387,-0.52099 0.32892,-0.94134 0.42413,-1.37591 0.47324,-2.16002 0.63346,-3.45787 0.99335,-5.322482 9.3e-4,-0.0048 0.002,-0.0097 0.003,-0.01451 0.16592,-0.860506 0.23812,-1.597868 0.37894,-2.393155 0.13864,-0.723467 0.28189,-1.41407 0.32314,-2.106976 0.029,-0.105091 -0.0328,-0.21745 0.14343,-0.308506 1.74032,-1.617937 2.69041,-2.358166 3.17669,-2.995791 0.76667,-1.002114 1.03041,-1.401251 1.11997,-1.694819 0.0329,-0.107769 0.10867,-0.253054 0.16806,-0.322984 0.14732,-0.173515 0.60036,-1.535635 0.72294,-2.173692 0.18996,-0.988699 -0.0737,-3.622491 -0.40337,-4.03122 -0.049,-0.06079 -0.11596,-0.235499 -0.14857,-0.388263 -0.14502,-0.678085 -0.79684,-1.585218 -1.45076,-2.019264 -0.91063,-0.604442 -2.18078,-0.740989 -3.3151,-0.775068 -0.99414,-0.02987 -1.9928,0.203263 -2.94094,0.503636 z m 3.01115,6.117677 c 0.17486,-0.02236 0.41925,0.09374 0.63233,0.316166 0.20026,0.208989 0.24418,0.337587 0.27379,0.801858 0.0287,0.451869 -0.008,0.671317 -0.2012,1.20084 -0.12999,0.356404 -0.3156,0.773025 -0.41262,0.925598 -0.097,0.152567 -0.20093,0.278921 -0.23091,0.281088 -0.1082,0.0072 -0.17121,-0.484117 -0.24456,-1.90137 -0.0595,-1.149372 -0.0526,-1.466233 0.0351,-1.554516 0.0391,-0.03937 0.0898,-0.06221 0.14809,-0.06967 z m -2.1732,0.09597 -0.0112,0.974802 c 0.0333,0.638294 -0.0686,1.479682 -0.13412,2.394049 -0.0469,0.655174 -0.15058,1.524991 -0.24877,2.234425 -0.0561,0.169205 -0.59978,0.453552 -0.9099,0.665875 -0.40613,0.278056 -0.82029,0.535247 -1.24399,0.795491 -0.4237,0.260244 -1.01119,0.531853 -1.2981,0.765248 -0.28691,0.233395 -0.42066,0.303277 -0.47902,0.527088 -0.0584,0.223811 0.0434,0.492885 0.10135,0.664801 0.0579,0.171916 0.10646,0.287749 0.27612,0.436267 0.16966,0.148518 0.34828,0.362688 0.47128,0.500899 0.12301,0.138211 0.184,0.239172 0.27196,0.323165 0.088,0.08399 0.12842,0.14394 0.244,0.186847 0.11558,0.04291 0.24366,0.0905 0.43169,0.02482 0.18803,-0.06568 0.96409,-0.422822 1.3244,-0.554024 0.12189,-0.04439 0.11516,0.02183 0.16617,0.0075 0.01,0.156083 0.0437,0.181088 0.0371,0.344973 -0.0134,0.333741 -0.0937,0.810732 -0.18143,1.113544 -0.70763,2.372558 -1.04301,4.848811 -1.71963,7.114661 -1.27547,4.27126 -3.17134,8.00797 -5.31111,10.96537 -3.40907,4.71171 -8.51608,6.95841 -11.420671,7.95079 -0.208223,0.042 -0.565357,0.19486 -0.968927,0.33244 -0.759533,0.25891 -1.835733,0.52323 -1.932101,0.36404 -0.09007,-0.15727 -0.120256,-0.25806 -0.107707,-0.49749 0.0087,-0.143 0.01987,-0.44719 0.03476,-0.60776 0.0314,-0.3386 0.05879,-0.75002 0.115165,-1.29214 0.04666,-0.44868 0.120376,-0.98191 0.168244,-1.68199 0.03653,-0.53429 0.1267,-0.80981 0.164122,-1.43036 0,0 -0.02101,-0.3125 0.111714,-0.36632 0.723579,-0.29342 2.311638,-0.95141 2.934161,-1.24218 0.62252,-0.29077 0.62177,-0.28244 0.83324,-0.42689 0.21147,-0.14445 0.36995,-0.23877 0.4493,-0.39816 0.0794,-0.15939 0.072,-0.30824 0.0367,-0.46655 -0.0353,-0.15831 -0.15469,-0.27959 -0.24966,-0.43916 -0.095,-0.15957 -0.21751,-0.35422 -0.32184,-0.517 -0.10433,-0.16278 -0.19372,-0.30967 -0.30354,-0.45998 -0.10982,-0.15031 -0.25861,-0.33612 -0.35516,-0.44043 -0.09655,-0.10431 -0.107547,-0.11972 -0.208787,-0.19686 -0.10124,-0.0771 -0.225826,-0.27072 -0.407352,-0.24776 -0.181526,0.023 -0.476917,0.13791 -0.760685,0.28289 -0.283768,0.14498 -0.477964,0.27239 -0.97627,0.37598 -0.170563,-0.10308 0.0099,-0.37828 0.196029,-1.945 0.428049,-3.76696 2.196905,-8.5426 3.994405,-12.546704 0.74395,-1.657208 1.72654,-3.207517 2.78164,-4.686216 0.49418,-0.692575 1.10241,-1.296222 1.65176,-1.945902 0.17858,-0.211196 0.17352,-0.240288 0.53454,-0.634607 0.18578,-0.202914 0.28396,-0.251632 0.39292,-0.353438 0.0519,-0.0485 0,0 0.19738,-0.18798 1.32332,-1.220592 2.77338,-2.249512 4.3357,-3.076394 0.4911,-0.25992 0.91479,-0.507726 0.94118,-0.550487 0.0265,-0.04279 0.10026,-0.07745 0.16418,-0.07745 0.0952,0 1.402,-0.577096 1.91403,-0.845219 0.0733,-0.03834 0.39793,-0.170771 0.72099,-0.29424 1.73581,-0.663399 2.56069,-0.909842 3.09491,-0.924624 z M 94.581475,120.02956 c 0.05375,0.0179 0.124545,0.16323 0.15735,0.32298 0.08653,0.42171 0.254394,3.46518 0.196324,3.55917 -0.08527,0.13792 -0.578886,0.0858 -0.870548,-0.0921 -0.320627,-0.19549 -0.604562,-0.74546 -0.607485,-1.17551 -0.0042,-0.66115 0.871919,-2.69875 1.124359,-2.61457 z"
       sodipodi:nodetypes="csssaasssssccssaaaaasssssssaasccssssccccscsscsaaccccscsscccssscazzzzzzzzzscscscsccsssccszzzzzzzzzzzcccsssccscssccscccsscc"
       transform="rotate(90,107.97706,104.63874)" />
  </g>
  <g
     inkscape:groupmode="layer"
     id="g1493"
     inkscape:label="Layer 4 copy copy copy"
     transform="translate(-70.159841,-66.252609)"
     style="display:inline;opacity:1">
    <path
       id="path1491"
       style="display:inline;opacity:1;fill:none;fill-opacity:1;stroke:#ff0000;stroke-width:1.07685;stroke-miterlimit:4;stroke-dasharray:none;stroke-opacity:1;filter:url(#filter1481)"
       d="m 118.25918,79.58975 c -2.04663,0.648374 -4.5812,1.827006 -5.81617,2.76656 -0.16317,0.124146 -0.54074,0.389697 -0.83887,0.589948 -1.05883,0.7112 -3.02325,2.366629 -4.29575,3.620059 -1.51997,1.497186 -3.22921,3.495313 -4.601,5.431284 -0.88501,1.248995 -1.62795,2.59762 -2.32193,3.962035 -1.090773,2.144545 -2.051407,4.359494 -2.883474,6.617044 -0.464902,1.26136 -0.816599,2.57453 -1.173665,3.85837 -0.417731,1.50196 -0.590136,3.10447 -0.964246,4.64055 -0.06794,0.27894 -0.118499,0.61471 -0.158471,0.95744 -0.03527,0.30241 -0.06229,0.61024 -0.08573,0.88923 -0.02447,0.29123 -0.05316,0.56488 -0.07906,0.81837 -0.07458,0.72989 0.09355,-1.42658 -0.251456,1.76404 -2.115817,2.02977 -2.195257,2.05921 -3.071414,3.061 -0.209593,0.23598 -0.446339,0.53272 -0.52613,0.65961 -0.0798,0.12689 -0.22734,0.33226 -0.327855,0.45647 -0.305098,0.377 -0.940545,1.60422 -1.20279,2.48693 -0.215626,0.72579 -0.275816,1.49606 -0.287908,2.25311 -0.0098,0.6118 0.03579,1.23135 0.174399,1.82732 0.165313,0.7108 0.473018,1.38319 0.775068,2.04751 0.04841,0.10648 0.101882,0.21128 0.165633,0.30934 0.08143,0.12525 0.06799,0.24093 0.27524,0.35369 0.293869,0.15989 0.815527,0.56764 1.126603,0.7002 0.854643,0.3642 1.815914,0.45234 2.732654,0.51866 0.962359,0.0696 1.96193,-0.0987 2.858641,-0.45501 2.724641,-1.08251 5.454781,-2.43261 7.817091,-4.2172 1.00173,-0.75675 2.02765,-1.57223 2.92086,-2.44604 0.64403,-0.63004 1.15845,-1.31689 1.83166,-1.90876 0.41179,-0.36203 0.74375,-0.80657 1.09318,-1.2291 0.38002,-0.45951 0.71816,-0.95227 1.08977,-1.4186 0.35746,-0.44856 0.76189,-0.86029 1.09614,-1.3264 0.78747,-1.09813 1.44669,-2.47536 2.12342,-3.64647 1.36855,-1.62426 2.29029,-4.34825 2.78867,-5.95412 0.16906,-0.55467 0.69859,-2.00158 0.8224,-2.56807 0.11387,-0.52099 0.32892,-0.94134 0.42413,-1.37591 0.47324,-2.16002 0.63346,-3.45787 0.99335,-5.322484 9.3e-4,-0.0048 0.002,-0.0097 0.003,-0.01451 0.16592,-0.860506 0.23812,-1.597868 0.37894,-2.393155 0.13864,-0.723467 0.28189,-1.41407 0.32314,-2.106976 0.029,-0.105091 -0.0328,-0.21745 0.14343,-0.308506 1.74032,-1.617937 2.69041,-2.358166 3.17669,-2.995791 0.76667,-1.002114 1.03041,-1.401251 1.11997,-1.694819 0.0329,-0.107769 0.10867,-0.253054 0.16806,-0.322984 0.14732,-0.173515 0.60036,-1.535635 0.72294,-2.173692 0.18996,-0.988699 -0.0737,-3.622491 -0.40337,-4.03122 -0.049,-0.06079 -0.11596,-0.235499 -0.14857,-0.388263 -0.14502,-0.678085 -0.79684,-1.585218 -1.45076,-2.019264 -0.91063,-0.604442 -2.18078,-0.740989 -3.3151,-0.775068 -0.99414,-0.02987 -1.9928,0.203263 -2.94094,0.503636 z m 3.01115,6.117677 c 0.17486,-0.02236 0.41925,0.09374 0.63233,0.316166 0.20026,0.208989 0.24418,0.337587 0.27379,0.801858 0.0287,0.451869 -0.008,0.671317 -0.2012,1.20084 -0.12999,0.356404 -0.3156,0.773025 -0.41262,0.925598 -0.097,0.152567 -0.20093,0.278921 -0.23091,0.281088 -0.1082,0.0072 -0.17121,-0.484117 -0.24456,-1.90137 -0.0595,-1.149372 -0.0526,-1.466233 0.0351,-1.554516 0.0391,-0.03937 0.0898,-0.06221 0.14809,-0.06967 z m -2.1732,0.09597 -0.0112,0.974802 c 0.0333,0.638294 -0.0686,1.479682 -0.13412,2.394049 -0.0469,0.655174 -0.15058,1.524991 -0.24877,2.234425 -0.0561,0.169205 -0.59978,0.453552 -0.9099,0.665875 -0.40613,0.278056 -0.82029,0.535247 -1.24399,0.795491 -0.4237,0.260244 -1.01119,0.531853 -1.2981,0.765248 -0.28691,0.233395 -0.42066,0.303277 -0.47902,0.527088 -0.0584,0.223811 0.0434,0.492885 0.10135,0.664801 0.0579,0.171916 0.10646,0.287749 0.27612,0.436267 0.16966,0.148518 0.34828,0.362688 0.47128,0.500899 0.12301,0.138211 0.184,0.239172 0.27196,0.323165 0.088,0.08399 0.12842,0.14394 0.244,0.186847 0.11558,0.04291 0.24366,0.0905 0.43169,0.02482 0.18803,-0.06568 0.96409,-0.422822 1.3244,-0.554024 0.12189,-0.04439 0.11516,0.02183 0.16617,0.0075 0.01,0.156083 0.0437,0.181088 0.0371,0.344973 -0.0134,0.333741 -0.0937,0.810732 -0.18143,1.113544 -0.70763,2.372558 -1.04301,4.848813 -1.71963,7.114663 -1.27547,4.27126 -3.17134,8.00797 -5.31111,10.96537 -3.40907,4.71171 -8.51608,6.95841 -11.420675,7.95079 -0.208223,0.042 -0.565357,0.19486 -0.968927,0.33244 -0.759533,0.25891 -1.835733,0.52323 -1.932101,0.36404 -0.09007,-0.15727 -0.120256,-0.25806 -0.107707,-0.49749 0.0087,-0.143 0.01987,-0.44719 0.03476,-0.60776 0.0314,-0.3386 0.05879,-0.75002 0.115165,-1.29214 0.04666,-0.44868 0.120376,-0.98191 0.168244,-1.68199 0.03653,-0.53429 0.1267,-0.80981 0.164122,-1.43036 0,0 -0.02101,-0.3125 0.111714,-0.36632 0.723579,-0.29342 2.311638,-0.95141 2.934161,-1.24218 0.622524,-0.29077 0.621774,-0.28244 0.833244,-0.42689 0.21147,-0.14445 0.36995,-0.23877 0.4493,-0.39816 0.0794,-0.15939 0.072,-0.30824 0.0367,-0.46655 -0.0353,-0.15831 -0.15469,-0.27959 -0.24966,-0.43916 -0.095,-0.15957 -0.21751,-0.35422 -0.32184,-0.517 -0.10433,-0.16278 -0.19372,-0.30967 -0.30354,-0.45998 -0.10982,-0.15031 -0.25861,-0.33612 -0.35516,-0.44043 -0.09656,-0.10431 -0.107551,-0.11972 -0.208791,-0.19686 -0.10124,-0.0771 -0.225826,-0.27072 -0.407352,-0.24776 -0.181526,0.023 -0.476917,0.13791 -0.760685,0.28289 -0.283768,0.14498 -0.477964,0.27239 -0.97627,0.37598 -0.170563,-0.10308 0.0099,-0.37828 0.196029,-1.945 0.428049,-3.76696 2.196909,-8.5426 3.994409,-12.546706 0.74395,-1.657208 1.72654,-3.207517 2.78164,-4.686216 0.49418,-0.692575 1.10241,-1.296222 1.65176,-1.945902 0.17858,-0.211196 0.17352,-0.240288 0.53454,-0.634607 0.18578,-0.202914 0.28396,-0.251632 0.39292,-0.353438 0.0519,-0.0485 0,0 0.19738,-0.18798 1.32332,-1.220592 2.77338,-2.249512 4.3357,-3.076394 0.4911,-0.25992 0.91479,-0.507726 0.94118,-0.550487 0.0265,-0.04279 0.10026,-0.07745 0.16418,-0.07745 0.0952,0 1.402,-0.577096 1.91403,-0.845219 0.0733,-0.03834 0.39793,-0.170771 0.72099,-0.29424 1.73581,-0.663399 2.56069,-0.909842 3.09491,-0.924624 z M 94.581481,120.02956 c 0.05375,0.0179 0.124545,0.16323 0.15735,0.32298 0.08653,0.42171 0.254394,3.46518 0.196324,3.55917 -0.08527,0.13792 -0.578886,0.0858 -0.870548,-0.0921 -0.320627,-0.19549 -0.604562,-0.74546 -0.607485,-1.17551 -0.0042,-0.66115 0.871919,-2.69875 1.124359,-2.61457 z"
       sodipodi:nodetypes="csssaassssssccssaaaaasssssssaasccssssccccscsscsaaccccscsscccssscazzzzzzzzzscscscsccsssccszzzzzzzzzzzcccsssccscssccscccsscc"
       transform="rotate(45,107.97706,104.63874)" />
  </g>
  <g
     inkscape:groupmode="layer"
     id="layer6"
     inkscape:label="Layer 4"
     style="display:inline;opacity:1"
     transform="translate(-70.159841,-66.252609)">
    <path
       id="path2796-4"
       style="display:inline;opacity:1;fill:url(#linearGradient1145);fill-opacity:1;stroke:none;stroke-width:0.0847677;stroke-opacity:1"
       d="m 118.25917,79.589752 c -2.04663,0.648374 -4.5812,1.827006 -5.81617,2.76656 -0.16317,0.124146 -0.54074,0.389697 -0.83887,0.589948 -1.05883,0.7112 -3.02325,2.366629 -4.29575,3.620059 -1.51997,1.497186 -3.22921,3.495313 -4.601,5.431284 -0.88501,1.248995 -1.62795,2.59762 -2.32193,3.962035 -1.090769,2.144545 -2.051403,4.359492 -2.88347,6.617042 -0.464902,1.26136 -0.816599,2.57453 -1.173665,3.85837 -0.417731,1.50196 -0.590136,3.10447 -0.964246,4.64055 -0.12788,0.52507 -0.194202,1.2515 -0.244199,1.84667 -0.02446,0.29123 -0.05316,0.56488 -0.07906,0.81837 -0.07458,0.72989 0.09355,-1.42658 -0.251456,1.76404 -2.115817,2.02977 -2.195257,2.05921 -3.071414,3.061 -0.209593,0.23598 -0.446339,0.53272 -0.52613,0.65961 -0.0798,0.12689 -0.22734,0.33226 -0.327855,0.45647 -0.305098,0.377 -0.940545,1.60422 -1.20279,2.48693 -0.215626,0.72579 -0.275816,1.49606 -0.287908,2.25311 -0.0098,0.6118 0.03579,1.23135 0.174399,1.82732 0.165313,0.7108 0.473018,1.38319 0.775068,2.04751 0.04841,0.10648 0.101882,0.21128 0.165633,0.30934 0.08143,0.12525 0.06799,0.24093 0.27524,0.35369 0.293869,0.15989 0.815527,0.56764 1.126603,0.7002 0.854643,0.3642 1.815914,0.45234 2.732654,0.51866 0.962359,0.0696 1.96193,-0.0987 2.858641,-0.45501 2.724635,-1.08251 5.454775,-2.43261 7.817085,-4.2172 1.00173,-0.75675 2.02765,-1.57223 2.92086,-2.44604 0.64403,-0.63004 1.15845,-1.31689 1.83166,-1.90876 0.41179,-0.36203 0.74375,-0.80657 1.09318,-1.2291 0.38002,-0.45951 0.71816,-0.95227 1.08977,-1.4186 0.35746,-0.44856 0.76189,-0.86029 1.09614,-1.3264 0.78747,-1.09813 1.44669,-2.47536 2.12342,-3.64647 1.36855,-1.62426 2.29029,-4.34825 2.78867,-5.95412 0.16906,-0.55467 0.69859,-2.00158 0.8224,-2.56807 0.11387,-0.52099 0.32892,-0.94134 0.42413,-1.37591 0.47324,-2.16002 0.63346,-3.45787 0.99335,-5.322482 9.3e-4,-0.0048 0.002,-0.0097 0.003,-0.01451 0.16592,-0.860506 0.23812,-1.597868 0.37894,-2.393155 0.13864,-0.723467 0.28189,-1.41407 0.32314,-2.106976 0.029,-0.105091 -0.0328,-0.21745 0.14343,-0.308506 1.74032,-1.617937 2.69041,-2.358166 3.17669,-2.995791 0.76667,-1.002114 1.03041,-1.401251 1.11997,-1.694819 0.0329,-0.107769 0.10867,-0.253054 0.16806,-0.322984 0.14732,-0.173515 0.60036,-1.535635 0.72294,-2.173692 0.18996,-0.988699 -0.0737,-3.622491 -0.40337,-4.03122 -0.049,-0.06079 -0.11596,-0.235499 -0.14857,-0.388263 -0.14502,-0.678085 -0.79684,-1.585218 -1.45076,-2.019264 -0.91063,-0.604442 -2.18078,-0.740989 -3.3151,-0.775068 -0.99414,-0.02987 -1.9928,0.203263 -2.94094,0.503636 z m 3.01115,6.117677 c 0.17486,-0.02236 0.41925,0.09374 0.63233,0.316166 0.20026,0.208989 0.24418,0.337587 0.27379,0.801858 0.0287,0.451869 -0.008,0.671317 -0.2012,1.20084 -0.12999,0.356404 -0.3156,0.773025 -0.41262,0.925598 -0.097,0.152567 -0.20093,0.278921 -0.23091,0.281088 -0.1082,0.0072 -0.17121,-0.484117 -0.24456,-1.90137 -0.0595,-1.149372 -0.0526,-1.466233 0.0351,-1.554516 0.0391,-0.03937 0.0898,-0.06221 0.14809,-0.06967 z m -2.1732,0.09597 -0.0112,0.974802 c 0.0333,0.638294 -0.0686,1.479682 -0.13412,2.394049 -0.0469,0.655174 -0.15058,1.524991 -0.24877,2.234425 -0.0561,0.169205 -0.59978,0.453552 -0.9099,0.665875 -0.40613,0.278056 -0.82029,0.535247 -1.24399,0.795491 -0.4237,0.260244 -1.01119,0.531853 -1.2981,0.765248 -0.28691,0.233395 -0.42066,0.303277 -0.47902,0.527088 -0.0584,0.223811 0.0434,0.492885 0.10135,0.664801 0.0579,0.171916 0.10646,0.287749 0.27612,0.436267 0.16966,0.148518 0.34828,0.362688 0.47128,0.500899 0.12301,0.138211 0.184,0.239172 0.27196,0.323165 0.088,0.08399 0.12842,0.14394 0.244,0.186847 0.11558,0.04291 0.24366,0.0905 0.43169,0.02482 0.18803,-0.06568 0.96409,-0.422822 1.3244,-0.554024 0.12189,-0.04439 0.11516,0.02183 0.16617,0.0075 0.01,0.156083 0.0437,0.181088 0.0371,0.344973 -0.0134,0.333741 -0.0937,0.810732 -0.18143,1.113544 -0.70763,2.372558 -1.04301,4.848811 -1.71963,7.114661 -1.27547,4.27126 -3.17134,8.00797 -5.31111,10.96537 -3.40907,4.71171 -8.51608,6.95841 -11.420671,7.95079 -0.208223,0.042 -0.565357,0.19486 -0.968927,0.33244 -0.759533,0.25891 -1.835733,0.52323 -1.932101,0.36404 -0.09007,-0.15727 -0.120256,-0.25806 -0.107707,-0.49749 0.0087,-0.143 0.01987,-0.44719 0.03476,-0.60776 0.0314,-0.3386 0.05879,-0.75002 0.115165,-1.29214 0.04666,-0.44868 0.120376,-0.98191 0.168244,-1.68199 0.03653,-0.53429 0.1267,-0.80981 0.164122,-1.43036 0,0 -0.02101,-0.3125 0.111714,-0.36632 0.723579,-0.29342 2.311638,-0.95141 2.934161,-1.24218 0.62252,-0.29077 0.62177,-0.28244 0.83324,-0.42689 0.21147,-0.14445 0.36995,-0.23877 0.4493,-0.39816 0.0794,-0.15939 0.072,-0.30824 0.0367,-0.46655 -0.0353,-0.15831 -0.15469,-0.27959 -0.24966,-0.43916 -0.095,-0.15957 -0.21751,-0.35422 -0.32184,-0.517 -0.10433,-0.16278 -0.19372,-0.30967 -0.30354,-0.45998 -0.10982,-0.15031 -0.25861,-0.33612 -0.35516,-0.44043 -0.09655,-0.10431 -0.107547,-0.11972 -0.208787,-0.19686 -0.10124,-0.0771 -0.225826,-0.27072 -0.407352,-0.24776 -0.181526,0.023 -0.476917,0.13791 -0.760685,0.28289 -0.283768,0.14498 -0.477964,0.27239 -0.97627,0.37598 -0.170563,-0.10308 0.0099,-0.37828 0.196029,-1.945 0.428049,-3.76696 2.196905,-8.5426 3.994405,-12.546704 0.74395,-1.657208 1.72654,-3.207517 2.78164,-4.686216 0.49418,-0.692575 1.10241,-1.296222 1.65176,-1.945902 0.17858,-0.211196 0.17352,-0.240288 0.53454,-0.634607 0.18578,-0.202914 0.28396,-0.251632 0.39292,-0.353438 0.0519,-0.0485 0,0 0.19738,-0.18798 1.32332,-1.220592 2.77338,-2.249512 4.3357,-3.076394 0.4911,-0.25992 0.91479,-0.507726 0.94118,-0.550487 0.0265,-0.04279 0.10026,-0.07745 0.16418,-0.07745 0.0952,0 1.402,-0.577096 1.91403,-0.845219 0.0733,-0.03834 0.39793,-0.170771 0.72099,-0.29424 1.73581,-0.663399 2.56069,-0.909842 3.09491,-0.924624 z M 94.581475,120.02956 c 0.05375,0.0179 0.124545,0.16323 0.15735,0.32298 0.08653,0.42171 0.254394,3.46518 0.196324,3.55917 -0.08527,0.13792 -0.578886,0.0858 -0.870548,-0.0921 -0.320627,-0.19549 -0.604562,-0.74546 -0.607485,-1.17551 -0.0042,-0.66115 0.871919,-2.69875 1.124359,-2.61457 z"
       sodipodi:nodetypes="csssaasssssccssaaaaasssssssaasccssssccccscsscsaaccccscsscccssscazzzzzzzzzscscscsccsssccszzzzzzzzzzzcccsssccscssccscccsscc" />
  </g>
  <g
     inkscape:label="Layer 1"
     inkscape:groupmode="layer"
     id="layer1"
     style="display:none;opacity:1"
     transform="translate(-70.159841,-66.252609)">
    <path
       style="fill:#ff0000;stroke-width:0.261963"
       id="path897"
       d="m 53.022774,38.336182 a 20.640617,19.449812 0 0 1 -6.2e-5,0.04761 z"
       sodipodi:type="arc"
       sodipodi:arc-type="chord"
       sodipodi:open="true"
       sodipodi:start="0"
       sodipodi:end="0.0024479814"
       sodipodi:ry="19.449812"
       sodipodi:rx="20.640617"
       sodipodi:cy="38.336182"
       sodipodi:cx="32.382156" />
    <path
       id="path2796-1"
       style="display:inline;opacity:1;fill:#ff0000;fill-opacity:0.98;stroke:#ff0000;stroke-width:0.721328;stroke-miterlimit:4;stroke-dasharray:none;stroke-opacity:1;filter:url(#filter1692)"
       d="m 119.96085,73.518938 c -0.014,-0.0029 -0.0285,-2.41e-4 -0.0439,0.0093 -0.0462,0.02865 -0.0644,0.379515 -0.0403,0.788067 0.0239,0.405053 0.0651,1.374497 0.0915,2.15439 l 0.0475,1.418 -0.24856,0.09664 c -0.13669,0.05302 -0.56736,0.177842 -0.95757,0.277503 -1.69524,0.43294 -4.85963,1.938046 -6.16965,2.934703 -0.17309,0.131691 -0.57361,0.413382 -0.88986,0.625803 -1.12318,0.754425 -3.20699,2.510464 -4.55683,3.840075 -1.61235,1.58818 -2.83159,3.010869 -4.34237,5.066869 -0.3643,0.49575 -0.71305,0.9208 -0.77515,0.94465 -0.10604,0.0407 -1.23929,-0.0884 -2.564186,-0.29197 -0.32146,-0.0494 -1.11045,-0.13544 -1.75338,-0.19121 -0.64293,-0.0558 -1.27488,-0.14144 -1.40457,-0.19068 -0.12969,-0.0493 -0.48804,-0.4101 -0.79633,-0.8015 -0.75077,-0.95316 -2.31312,-2.510231 -3.09749,-3.087153 -0.75305,-0.553876 -1.860805,-1.20161 -2.196243,-1.28416 -0.131207,-0.0323 -0.319154,-0.108932 -0.418063,-0.170532 -0.09891,-0.06161 -0.523759,-0.203145 -0.944129,-0.314709 -1.164997,-0.309197 -2.866187,-0.294158 -4.120164,0.03669 -0.510365,0.134657 -0.995902,0.279202 -1.079002,0.32091 -0.08311,0.04172 -0.408753,0.191376 -0.723472,0.332799 -1.583084,0.71139 -2.345592,2.202201 -2.348693,4.592485 -8.46e-4,0.65238 -0.03836,1.20909 -0.08371,1.23713 -0.08309,0.0514 -0.905994,0.20999 -2.380218,0.45889 -0.978437,0.16519 -1.116891,0.22778 -0.900721,0.40669 0.124344,0.10322 0.488492,0.12381 1.851051,0.10439 1.309579,-0.0186 1.704049,0.002 1.729611,0.0899 0.01821,0.0627 0.122438,0.43737 0.232026,0.83302 0.452448,1.63355 0.99763,2.96517 1.877923,4.58628 0.551756,1.01608 1.844555,2.931522 2.788459,4.132562 0.217173,0.27633 0.368335,0.52879 0.336413,0.5607 -0.03188,0.0319 -0.472512,0.0893 -0.979268,0.12764 -3.280151,0.24794 -5.681144,1.59526 -7.284826,4.08759 -1.30374,2.0262 -1.486233,3.71352 -0.570508,5.27152 0.294802,0.50158 1.237954,1.56187 1.734262,1.94975 0.214127,0.16736 0.389123,0.33445 0.389123,0.37103 0,0.11031 -0.428332,0.81423 -0.902272,1.48261 -0.245435,0.34614 -0.446484,0.67565 -0.446484,0.73225 0,0.0565 -0.0607,0.12653 -0.134874,0.15503 -0.07422,0.0285 -0.134877,0.15105 -0.134877,0.27285 0,0.18701 0.177274,0.0444 1.139984,-0.91828 1.23117,-1.23118 1.245579,-1.23825 1.819526,-0.87593 1.635379,1.03235 4.635868,2.14998 6.88692,2.56522 1.217382,0.22458 2.011601,0.34903 2.600873,0.40773 0.342445,0.0342 0.675997,0.0823 0.741558,0.10748 0.221247,0.0849 0.121589,0.3781 -0.284737,0.83561 -0.222332,0.25032 -0.473466,0.5651 -0.558107,0.6997 -0.08465,0.1346 -0.241157,0.35245 -0.347781,0.48421 -0.323641,0.39991 -1.082696,1.96932 -1.275892,2.63808 -0.29608,1.02492 -0.307708,1.11563 -0.305406,2.39004 0.0017,0.928 0.04582,1.39328 0.184999,1.93838 0.237726,0.93109 0.601078,1.89088 0.822174,2.17196 0.09643,0.1226 0.175699,0.27035 0.175699,0.32814 0,0.0578 0.131242,0.22656 0.291971,0.37518 1.075904,0.99481 2.016205,1.29094 4.093805,1.29294 1.10179,8e-4 1.1036,0.001 1.19114,0.23151 0.0483,0.12686 0.0893,0.31881 0.0909,0.42685 0.002,0.10806 0.0812,0.35873 0.17674,0.55655 0.11751,0.24331 0.17443,0.55575 0.17673,0.96636 0.002,0.34264 0.0422,0.60719 0.093,0.60719 0.0562,0 0.0899,-0.54027 0.0899,-1.44074 0,-1.66917 -0.12886,-1.4753 1.21388,-1.83038 4.248516,-1.12348 9.421556,-4.65104 13.333556,-9.09298 0.52266,-0.59348 1.04437,-1.18016 1.15962,-1.3038 0.11524,-0.12364 0.63542,-0.801 1.156,-1.50482 0.52057,-0.70381 1.02236,-1.32002 1.11466,-1.36942 0.16935,-0.0906 1.24443,-0.002 3.64784,0.29921 0.59347,0.0745 1.34122,0.1634 1.6614,0.1974 0.65923,0.07 0.65025,0.0628 1.80092,1.42058 2.47605,2.92168 4.99099,4.38615 7.77782,4.52841 1.97273,0.10072 4.23834,-0.5988 5.30562,-1.63814 0.8708,-0.848 1.3533,-2.4203 1.2883,-4.19716 l -0.03,-0.81494 0.85472,-0.21032 c 0.46984,-0.11573 0.95536,-0.21246 1.07902,-0.21446 0.36139,-0.007 0.9083,-0.18542 0.85111,-0.27802 -0.0292,-0.0472 -0.64741,-0.0847 -1.39269,-0.0847 -1.5362,0 -1.59917,-0.0279 -1.7942,-0.79322 -0.40127,-1.57466 -1.00538,-3.09159 -1.90531,-4.78214 -0.57599,-1.08199 -2.30562,-3.65579 -2.9192,-4.34444 -0.34209,-0.38394 -0.23632,-0.48647 0.56741,-0.55087 3.97784,-0.31876 6.64665,-2.04078 8.13077,-5.24619 0.18972,-0.40975 0.40232,-1.04792 0.47232,-1.41853 0.11448,-0.606282 0.11143,-0.743662 -0.0284,-1.368382 -0.0855,-0.38187 -0.23858,-0.85585 -0.34004,-1.05368 -0.32072,-0.62538 -0.9666,-1.43137 -1.58439,-1.97714 -0.32848,-0.29018 -0.59688,-0.59335 -0.59688,-0.67335 0,-0.08 0.44509,-0.81875 0.9891,-1.64176 0.94486,-1.42937 1.08448,-1.68775 0.91261,-1.68775 -0.0736,0 -0.92911,0.86018 -2.04277,2.05414 -0.29269,0.31377 -0.59306,0.60288 -0.66766,0.64234 -0.0907,0.048 -0.35919,-0.0616 -0.8103,-0.33073 -2.29392,-1.36875 -5.56591,-2.40273 -8.92037,-2.81895 -1.29515,-0.1607 -1.30284,-0.18598 -0.40256,-1.36271 0.81327,-1.06302 1.09304,-1.486413 1.18804,-1.797822 0.0349,-0.114318 0.11528,-0.268433 0.17828,-0.342614 0.15627,-0.18406 0.63683,-1.628966 0.76687,-2.305802 0.20151,-1.048789 -0.0782,-3.842654 -0.42787,-4.276224 -0.052,-0.06449 -0.12302,-0.249812 -0.15761,-0.411861 -0.15384,-0.719297 -0.84527,-1.681562 -1.53893,-2.141988 -0.96598,-0.641178 -2.33341,-0.60023 -3.51658,-0.822174 -0.33688,-0.06319 -0.94264,0.03985 -1.01803,-0.144693 -0.0879,-0.215103 -0.31654,-1.389975 -0.40514,-2.081527 -0.0818,-0.638487 -0.21005,-1.009565 -0.36948,-1.070734 -0.1011,-0.0388 -0.12175,-0.124249 -0.0786,-0.320911 0.0591,-0.26911 10e-4,-0.571394 -0.0972,-0.591695 z m 2.04276,11.233422 c 0.1855,-0.02372 0.44473,0.09944 0.67077,0.335381 0.21242,0.221691 0.25901,0.358105 0.29042,0.850593 0.0305,0.479332 -0.009,0.712118 -0.21343,1.273823 -0.13789,0.378066 -0.33478,0.820007 -0.4377,0.981853 -0.10292,0.16184 -0.21314,0.295873 -0.24494,0.298172 -0.11477,0.0076 -0.18161,-0.51354 -0.25941,-2.016929 -0.0631,-1.219227 -0.0558,-1.555346 0.0372,-1.648995 0.0415,-0.04176 0.0953,-0.06599 0.15708,-0.0739 z m -2.30528,0.101801 -0.0119,1.034047 c -0.0154,1.29285 -0.30366,4.77651 -0.40617,4.90978 -0.0423,0.055 -0.68659,0.1478 -1.44746,0.20877 -1.93325,0.15484 -4.15108,0.49441 -6.18205,0.94619 -0.97595,0.21711 -1.4167,0.33484 -2.9223,0.7798 -0.89052,0.26319 -1.42803,0.28168 -2.06655,0.0713 -0.2957,-0.0974 -0.56964,-0.20941 -0.60874,-0.24856 -0.0838,-0.0838 0.64269,-0.95484 1.30844,-1.5689 1.40375,-1.29477 2.94194,-2.386226 4.59921,-3.263364 0.52095,-0.275717 0.97039,-0.538584 0.99838,-0.583944 0.0281,-0.04539 0.10636,-0.08216 0.17416,-0.08216 0.10098,0 1.48721,-0.61217 2.03036,-0.896589 0.0777,-0.04067 0.42211,-0.181149 0.76481,-0.312123 1.84131,-0.703718 2.71632,-0.965139 3.28301,-0.980819 z m -30.838941,4.923217 c 0.517366,-0.0165 1.166487,0.16021 1.907376,0.53123 0.408014,0.20433 0.742069,0.40243 0.742069,0.4408 0,0.0384 -0.253132,0.0923 -0.562234,0.11937 -1.56119,0.13671 -3.081563,0.15271 -3.242697,0.0341 -0.156477,-0.11518 -0.155109,-0.13591 0.03824,-0.49816 0.214302,-0.40148 0.599879,-0.61085 1.117245,-0.62735 z m -0.730189,3.28249 c 0.64281,-0.004 2.057209,0.0981 3.919144,0.28783 0.46983,0.0479 1.21836,0.11342 1.66346,0.14573 l 0.80925,0.0589 0.31471,0.39429 c 0.92203,1.15492 1.43868,2.35638 1.43868,3.34605 0,0.90092 -0.17386,1.28402 -0.74983,1.65158 -0.65427,0.41752 -3.57644,2.617992 -3.78271,2.848402 v -5.3e-4 c -0.25578,0.28573 -0.621238,0.25109 -0.778768,-0.0739 -0.07075,-0.14594 -0.322284,-0.61797 -0.558623,-1.04904 -0.236341,-0.43106 -0.647816,-1.276962 -0.914672,-1.879982 -0.424294,-0.95877 -0.601491,-1.39913 -1.175639,-2.92024 -0.514242,-1.36245 -0.763765,-2.59909 -0.558623,-2.76933 0.03081,-0.0256 0.159351,-0.0385 0.373621,-0.0398 z m 10.500654,1.11621 c 0.44591,0.0103 1.25787,0.15473 1.469686,0.29352 0.27602,0.18086 0.25922,0.25793 -0.250126,1.15807 -0.37356,0.66017 -0.92488,1.32033 -1.10277,1.32033 -0.0545,0 -0.23653,0.10114 -0.40412,0.22479 -0.33312,0.24577 -0.41184,0.26832 -0.49144,0.13953 -0.029,-0.047 0.0285,-0.12902 0.12816,-0.18242 0.0997,-0.0533 0.34128,-0.24745 0.53692,-0.4315 0.53113,-0.49967 0.54891,-0.7946 0.10077,-1.68 -0.2339,-0.46209 -0.33123,-0.74681 -0.27492,-0.80305 0.0315,-0.0315 0.1392,-0.0427 0.28784,-0.0393 z m 16.622246,0.63458 c 0.0738,0.003 0.13153,0.0107 0.16795,0.0222 0.102,0.0324 0.36784,0.29591 0.59065,0.58549 0.55994,0.72769 0.73797,0.75517 1.72342,0.26924 0.54552,-0.26894 0.79439,-0.35024 0.86298,-0.28164 0.12894,0.12893 -0.0627,1.49763 -0.24959,1.78284 -0.0753,0.11494 -0.16606,0.20877 -0.20205,0.20877 -0.036,0 -0.47025,-0.22381 -0.96481,-0.49764 -0.97328,-0.53888 -2.70348,-1.39062 -2.82514,-1.39062 -0.0413,0 -0.1245,-0.0595 -0.185,-0.13229 -0.0605,-0.0729 -0.24737,-0.15815 -0.41548,-0.18965 -0.16813,-0.0316 -0.30593,-0.0901 -0.30593,-0.12971 0,-0.10997 1.28632,-0.27055 1.803,-0.24701 z m 6.51691,0.49816 c 0.18707,-0.007 0.62856,0.12782 1.79628,0.51987 2.39571,0.80432 3.2282,1.14494 5.26013,2.15129 1.46997,0.72803 1.77582,0.95033 1.65727,1.20406 -0.0701,0.15006 -0.5649,0.59432 -2.33165,2.093922 -0.0989,0.084 -0.57245,0.48005 -1.05212,0.88006 -0.47969,0.40001 -0.89698,0.76717 -0.92709,0.81597 -0.0302,0.0488 -0.1078,0.0889 -0.17259,0.0889 -0.1148,0 -0.95023,-0.6215 -1.22009,-0.90745 -0.29274,-0.31021 -1.62221,-1.32958 -3.29902,-2.529562 -0.32232,-0.23068 -0.50618,-0.55744 -0.43718,-0.77721 0.0254,-0.0809 0.10548,-0.57161 0.17778,-1.09089 0.234,-1.68033 0.34289,-2.29134 0.42839,-2.39934 0.0233,-0.0295 0.0575,-0.0473 0.11989,-0.0496 z m -14.19293,1.02837 c 0.32851,-0.0217 0.69787,0.0744 1.29759,0.3023 0.46419,0.17642 0.94502,0.35368 1.06866,0.39377 0.23226,0.0753 2.73557,1.15307 3.37189,1.4516 0.56601,0.26554 2.38591,1.24765 3.31815,1.790582 0.97802,0.56958 1.0208,0.65023 0.77464,1.48001 -0.0886,0.29861 -0.28761,1.00842 -0.44185,1.57718 -0.46662,1.72067 -1.64107,5.05488 -2.10788,5.9836 -0.0735,0.14624 -0.27859,0.57912 -0.45577,0.96222 l -0.32248,0.69659 -1.01182,0.50128 c -1.29753,0.64273 -2.62244,1.21354 -3.97236,1.71151 -1.12884,0.41643 -1.27297,0.44633 -1.49036,0.30593 -0.0742,-0.0479 -0.57994,-0.23489 -1.12396,-0.41547 -1.9402,-0.64406 -5.46713,-2.26631 -6.777876,-3.11714 -0.24529,-0.15922 -0.69247,-0.4412 -0.99322,-0.62682 -0.64132,-0.39583 -0.65875,-0.47371 -0.35502,-1.57511 1.11035,-4.02631 2.851286,-8.457912 3.513996,-8.945702 0.48272,-0.35528 4.35571,-2.13527 4.64623,-2.13527 0.0445,0 0.25726,-0.08 0.47284,-0.17777 0.20902,-0.0948 0.39148,-0.15026 0.5886,-0.16329 z m 24.51994,4.177512 c 0.0412,-0.002 0.0685,0.0225 0.0977,0.061 0.16241,0.21421 0.25907,0.79378 0.18708,1.12138 -0.0619,0.28183 -0.6339,0.87246 -1.12758,1.16427 -0.17311,0.10231 -0.56632,0.2705 -0.87385,0.37363 -0.55144,0.18492 -1.01441,0.2437 -1.01441,0.12867 0,-0.1287 0.50208,-0.70246 1.57664,-1.80145 0.7842,-0.802 1.031,-1.04235 1.15446,-1.04747 z m -35.172006,1.25782 c 0.14375,0.016 0.0865,0.28444 -0.13333,0.87435 -0.14975,0.40192 -0.40693,1.19601 -0.57154,1.76476 -0.1646,0.56873 -0.35859,1.21612 -0.43098,1.43866 -0.0724,0.22255 -0.15745,0.53592 -0.18914,0.69608 -0.0317,0.16019 -0.0923,0.3125 -0.13435,0.33849 -0.13245,0.0819 -0.18791,-0.27543 -0.16072,-1.03559 0.0258,-0.72143 0.0214,-0.73876 -0.24339,-0.95241 -0.14838,-0.11968 -0.43135,-0.26174 -0.62891,-0.31573 -0.19754,-0.054 -0.51962,-0.18007 -0.71571,-0.2801 l -0.35657,-0.1819 0.26613,-0.21704 c 0.23205,-0.18917 0.99829,-0.70644 2.81482,-1.90065 0.23885,-0.15702 0.39744,-0.23852 0.48369,-0.22892 z m 23.354646,1.45984 c 0.0951,-0.0233 0.13399,0.25944 0.11317,0.83044 -0.0251,0.68807 -0.0162,0.72487 0.2403,0.98134 0.14655,0.14657 0.3298,0.26665 0.40721,0.26665 0.19698,0 1.31206,0.45455 1.31206,0.53485 0,0.10319 -2.69404,1.98792 -3.31505,2.31925 -0.11693,0.0624 -0.23233,0.11316 -0.25683,0.11316 -0.10013,0 0.0686,-0.64847 0.45114,-1.73168 0.22291,-0.63111 0.45504,-1.35994 0.51574,-1.61902 0.0607,-0.25909 0.15186,-0.52324 0.20256,-0.58704 0.0507,-0.0638 0.12505,-0.32154 0.16485,-0.57309 0.0398,-0.25155 0.0937,-0.47922 0.1204,-0.50591 0.0159,-0.0159 0.0309,-0.0256 0.0444,-0.029 z m -34.177244,3.2515 c 0.120214,-0.007 0.192236,0.0148 0.192236,0.0734 0,0.12891 -0.498496,0.71881 -1.5875,1.87844 -0.568947,0.60584 -1.065747,1.10122 -1.103807,1.10122 -0.117041,0 -0.370676,-0.65656 -0.382408,-0.9896 -0.01267,-0.35944 0.172104,-0.76385 0.479558,-1.04903 0.449558,-0.417 1.880989,-0.98418 2.401921,-1.01441 z m 3.567741,0.35552 c 0.06012,0 0.358804,0.22991 1.041797,0.80202 1.40349,1.17566 1.28527,1.08369 2.98845,2.32906 0.42744,0.31253 0.81521,0.63968 0.86196,0.72708 0.057,0.1065 0.013,0.65958 -0.13384,1.67949 -0.1204,0.8365 -0.21951,1.66803 -0.22014,1.84743 -0.002,0.54635 -0.17727,0.57944 -1.30483,0.24649 -2.754731,-0.81339 -7.868255,-3.17728 -7.868255,-3.6375 0,-0.16738 0.382344,-0.52388 2.190563,-2.04327 1.842532,-1.54825 2.346836,-1.9508 2.444295,-1.9508 z m 34.778753,1.08004 c 0.21026,8e-4 0.2776,0.10274 1.03663,1.57511 1.45968,2.83143 2.89392,6.72117 2.68201,7.27344 -0.0427,0.11143 -0.17839,0.13979 -0.6196,0.12921 -0.31065,-0.007 -0.66597,-0.0256 -0.78961,-0.0398 -0.12364,-0.0142 -1.29702,-0.11256 -2.60759,-0.2186 -3.15112,-0.25492 -2.90285,-0.20346 -3.29129,-0.67747 -0.94342,-1.15133 -1.55977,-2.75452 -1.4428,-3.75326 0.0386,-0.32918 0.0195,-0.44375 -0.0806,-0.48214 -0.19749,-0.0758 -0.15759,-0.20078 0.047,-0.14728 0.13012,0.034 0.20123,-0.0133 0.26304,-0.1757 0.0476,-0.1252 0.33336,-0.37947 0.6537,-0.58188 0.31293,-0.19772 1.33029,-0.93156 2.26084,-1.63091 0.97929,-0.73596 1.77458,-1.27117 1.88826,-1.27072 z m -6.22493,4.31498 c 0.16189,0 0.17523,0.0221 0.0816,0.13487 -0.0616,0.0743 -0.16755,0.13489 -0.23566,0.13489 -0.0681,0 -0.12402,0.0607 -0.12402,0.13487 0,0.0742 -0.0378,0.13487 -0.0842,0.13487 -0.0464,0 -0.21738,0.12138 -0.37982,0.26975 -0.16244,0.14837 -0.32038,0.26975 -0.35088,0.26975 -0.0798,0 -0.26407,0.42989 -0.26407,0.61599 0,0.0868 0.16281,0.49452 0.36174,0.9059 0.28071,0.58048 0.33848,0.77525 0.2589,0.87177 v 5.3e-4 c -0.11267,0.13556 -0.2601,0.14006 -0.93535,0.0284 -1.38408,-0.22883 -1.38203,-0.22527 -0.71778,-1.46916 0.48916,-0.916 0.82883,-1.29811 1.28002,-1.44073 0.11122,-0.0352 0.20206,-0.0998 0.20206,-0.14367 0,-0.0439 0.13883,-0.10607 0.30851,-0.13797 0.16967,-0.0318 0.33048,-0.11457 0.35708,-0.18397 0.0266,-0.0693 0.13532,-0.12609 0.24185,-0.12609 z m -20.850936,0.2713 c 0.20729,-0.0122 0.61232,0.16007 1.27796,0.53795 0.52268,0.29674 0.9695,0.53951 0.99271,0.53951 0.0232,0 0.538986,0.23872 1.146706,0.53019 0.60771,0.29147 1.19612,0.55738 1.30741,0.59067 0.11131,0.0333 0.20205,0.0957 0.20205,0.13849 0,0.0992 -0.17483,0.1508 -0.89917,0.26562 -0.98608,0.15631 -1.29781,0.0968 -1.554946,-0.29559 -0.25062,-0.3825 -0.80061,-0.86972 -0.98185,-0.86972 -0.0944,0 -0.51558,0.16186 -0.93586,0.35967 -0.82406,0.38788 -0.89325,0.40707 -0.97876,0.26873 -0.0557,-0.0901 0.19157,-1.84944 0.28009,-1.99266 0.0274,-0.0444 0.0746,-0.0688 0.14366,-0.0729 z m 10.676346,4.32326 0.51988,0.13435 c 1.30435,0.33707 1.21671,0.29428 1.15031,0.55966 -0.0755,0.30169 -1.51285,1.73101 -2.65358,2.63861 -1.91208,1.52132 -3.17935,2.26708 -5.80016,3.41373 -0.79129,0.3462 -1.580286,0.68426 -1.753386,0.75087 -1.13295,0.43638 -2.13675,0.76187 -2.8944,0.93844 -0.67031,0.15621 -0.85426,0.13067 -0.91881,-0.12662 -0.0601,-0.23953 0.006,-1.1044 0.31885,-4.16047 0.18309,-1.78904 0.2079,-1.91557 0.38395,-1.95336 0.10352,-0.0223 0.73433,-0.0851 1.40198,-0.14005 1.05347,-0.0867 3.002816,-0.35263 4.565106,-0.62269 0.89562,-0.15483 2.8555,-0.62785 4.26692,-1.02992 z m 19.45929,2.04069 c 0.37216,0.002 0.63071,0.0142 0.66558,0.0419 0.154,0.122 0.14301,0.21766 -0.0801,0.67851 -0.14342,0.29627 -0.28757,0.44114 -0.56224,0.56586 -0.20306,0.0922 -0.51058,0.16581 -0.68367,0.16382 -0.65647,-0.008 -1.62201,-0.37088 -2.55385,-0.95912 -0.30067,-0.18981 -0.33123,-0.23577 -0.20309,-0.30748 0.16477,-0.0922 2.30091,-0.18799 3.41737,-0.18345 z m -33.814996,2.29083 c 0.057,0.019 0.13212,0.17314 0.16691,0.3426 0.0918,0.44734 0.26986,3.67578 0.20826,3.77548 -0.0905,0.14631 -0.61407,0.091 -0.92346,-0.0977 -0.34011,-0.20737 -0.6413,-0.79077 -0.6444,-1.24696 -0.005,-0.70133 0.92491,-2.86277 1.19269,-2.77347 z"
       transform="matrix(0.94270536,0,0,0.94270536,6.2568482,5.8109588)"
       sodipodi:nodetypes="ccsccccsssccsccsccccsccscsccccsscccscssscsccccccscscsssccccscsscsssccsccscccccsssscsccssscscccssccsscsacsscccscccscscssccsccsccsscscscccsscsccccccccssccssscccccssssccsccccccccccsssccsccccsscscsscsccccccssscssccccccscccssccccssscccscssscsccsccsscscsssscsssscccsssssccsccccccscsscccsccccccscssscssssssscccscsccssccssssscscsccccscsscssccssccccsscssccccccccc" />
  </g>
  <g
     inkscape:groupmode="layer"
     id="layer7"
     inkscape:label="Layer 5"
     style="display:inline">
    <path
       id="path2796-4-7"
       style="display:inline;opacity:1;fill:url(#linearGradient3656-4-9);fill-opacity:1;stroke:none;stroke-width:0.0847677;stroke-opacity:1"
       d="m 62.828199,48.842501 c -0.648374,-2.04663 -1.827006,-4.5812 -2.76656,-5.81617 -0.124146,-0.16317 -0.389697,-0.54074 -0.589948,-0.83887 -0.7112,-1.05883 -2.366629,-3.02325 -3.620059,-4.29575 -1.497186,-1.51997 -3.495313,-3.22921 -5.431284,-4.601 -1.248995,-0.88501 -2.59762,-1.62795 -3.962036,-2.32193 -2.144544,-1.09077 -4.359492,-2.0514 -6.617041,-2.88347 -1.26136,-0.4649 -2.574533,-0.8166 -3.858373,-1.17366 -1.50196,-0.41773 -3.10447,-0.59014 -4.64055,-0.96425 -0.52507,-0.12788 -1.2515,-0.1942 -1.84667,-0.2442 -0.29123,-0.0245 -0.56488,-0.0532 -0.81837,-0.0791 -0.72989,-0.0746 1.42658,0.0936 -1.76404,-0.25145 -2.02977,-2.11582 -2.05921,-2.19526 -3.061,-3.07142 -0.23598,-0.20959 -0.53272,-0.44634 -0.65961,-0.52613 -0.12689,-0.0798 -0.33226,-0.22734 -0.45647,-0.32785 -0.377,-0.3051 -1.60422,-0.94055 -2.48693,-1.20279 -0.72579,-0.21563 -1.49606,-0.275817 -2.25311,-0.287909 -0.6118,-0.0098 -1.23135,0.03579 -1.82732,0.174399 -0.7108,0.16531 -1.38319,0.47302 -2.04751,0.77507 -0.10648,0.0484 -0.21128,0.10188 -0.30934,0.16563 -0.12525,0.0814 -0.24093,0.068 -0.35369,0.27524 -0.15989,0.29387 -0.56764,0.81553 -0.7002,1.1266 -0.3642,0.85465 -0.45234,1.81592 -0.51866,2.73266 -0.0696,0.96236 0.0987,1.96193 0.45501,2.85864 1.08251,2.72463 2.43261,5.45477 4.2172,7.81708 0.75675,1.00173 1.57223,2.02765 2.44604,2.92086 0.63004,0.64403 1.31689,1.15845 1.90876,1.83166 0.36203,0.41179 0.80657,0.74375 1.2291,1.09318 0.45951,0.38002 0.95227,0.71816 1.4186,1.08977 0.44856,0.35746 0.86029,0.76189 1.3264,1.09614 1.09813,0.78747 2.47536,1.44669 3.64647,2.12342 1.62426,1.36855 4.34825,2.29029 5.95412,2.78867 0.55467,0.16906 2.00158,0.69859 2.56807,0.82241 0.520993,0.11386 0.941342,0.32891 1.375913,0.42412 2.160019,0.47324 3.457869,0.63346 5.322482,0.99335 0.0048,10e-4 0.0097,0.002 0.01451,0.003 0.860506,0.16592 1.597868,0.23812 2.393155,0.37894 0.723467,0.13864 1.41407,0.28189 2.106976,0.32314 0.105091,0.029 0.21745,-0.0328 0.308506,0.14343 1.617937,1.74032 2.358166,2.69041 2.995791,3.17669 1.002114,0.76667 1.401251,1.03041 1.694819,1.11997 0.107769,0.0329 0.253054,0.10867 0.322984,0.16806 0.173515,0.14732 1.535635,0.60036 2.173692,0.72294 0.988699,0.18996 3.622491,-0.0737 4.03122,-0.40337 0.06079,-0.049 0.235499,-0.11596 0.388263,-0.14857 0.678085,-0.14502 1.585218,-0.79684 2.019264,-1.45076 0.604442,-0.91063 0.740989,-2.18078 0.775068,-3.3151 0.02987,-0.99414 -0.203263,-1.9928 -0.503636,-2.94094 z m -6.117677,3.01115 c 0.02236,0.17486 -0.09374,0.41925 -0.316166,0.63233 -0.208989,0.20026 -0.337587,0.24418 -0.801859,0.27379 -0.451868,0.0287 -0.671316,-0.008 -1.20084,-0.2012 -0.356403,-0.12999 -0.773024,-0.3156 -0.925597,-0.41262 -0.152567,-0.097 -0.278922,-0.20093 -0.281088,-0.23091 -0.0072,-0.1082 0.484117,-0.17121 1.90137,-0.24456 1.149372,-0.0595 1.466233,-0.0526 1.554516,0.0351 0.03937,0.0391 0.06221,0.0898 0.06967,0.14809 z m -0.09597,-2.1732 -0.974802,-0.0112 c -0.638294,0.0333 -1.479682,-0.0686 -2.394049,-0.13412 -0.655174,-0.0469 -1.524992,-0.15058 -2.234425,-0.24877 -0.169205,-0.0561 -0.453552,-0.59978 -0.665875,-0.9099 -0.278056,-0.40613 -0.535247,-0.82029 -0.795491,-1.24399 -0.260245,-0.4237 -0.531853,-1.01119 -0.765248,-1.2981 -0.233395,-0.28691 -0.303277,-0.42066 -0.527088,-0.47902 -0.223811,-0.0584 -0.492885,0.0434 -0.664801,0.10135 -0.171916,0.0579 -0.287749,0.10646 -0.436267,0.27612 -0.148518,0.16966 -0.362688,0.34828 -0.5009,0.47128 -0.13821,0.12301 -0.239171,0.184 -0.323165,0.27196 -0.08399,0.088 -0.143939,0.12842 -0.186846,0.244 -0.04291,0.11558 -0.0905,0.24366 -0.02482,0.43169 0.06568,0.18803 0.422822,0.96409 0.554024,1.3244 0.04439,0.12189 -0.02183,0.11516 -0.0075,0.16617 -0.156083,0.01 -0.181088,0.0437 -0.344973,0.0371 -0.333741,-0.0134 -0.810732,-0.0937 -1.113544,-0.18143 -2.372558,-0.70763 -4.848811,-1.04301 -7.114661,-1.71963 -4.271263,-1.27547 -8.007973,-3.17134 -10.965373,-5.31111 -4.71171,-3.40907 -6.95841,-8.51608 -7.95079,-11.42067 -0.042,-0.20822 -0.19486,-0.56535 -0.33244,-0.96892 -0.25891,-0.75954 -0.52323,-1.83574 -0.36404,-1.93211 0.15727,-0.0901 0.25806,-0.12025 0.49749,-0.1077 0.143,0.009 0.44719,0.0199 0.60776,0.0348 0.3386,0.0314 0.75002,0.0588 1.29214,0.11516 0.44868,0.0467 0.98191,0.12038 1.68199,0.16825 0.53429,0.0365 0.80981,0.1267 1.43036,0.16412 0,0 0.3125,-0.021 0.36632,0.11171 0.29342,0.72358 0.95141,2.31164 1.24218,2.93416 0.29077,0.62252 0.28244,0.62177 0.42689,0.83324 0.14445,0.21147 0.23877,0.36995 0.39816,0.4493 0.15939,0.0794 0.30824,0.072 0.46655,0.0367 0.15831,-0.0353 0.27959,-0.15469 0.43916,-0.24966 0.15957,-0.095 0.35422,-0.21751 0.517,-0.32184 0.16278,-0.10433 0.30967,-0.19372 0.45998,-0.30354 0.15031,-0.10982 0.33612,-0.25861 0.44043,-0.35516 0.10431,-0.0966 0.11972,-0.10754 0.19686,-0.20878 0.0771,-0.10124 0.27072,-0.22583 0.24776,-0.40735 -0.023,-0.18153 -0.13791,-0.47692 -0.28289,-0.76069 -0.14498,-0.28377 -0.27239,-0.47796 -0.37598,-0.97627 0.10308,-0.17056 0.37828,0.01 1.945,0.19603 3.76696,0.42805 8.542603,2.1969 12.546707,3.9944 1.657208,0.74395 3.207517,1.72654 4.686216,2.78164 0.692575,0.49418 1.296222,1.10241 1.945902,1.65176 0.211196,0.17858 0.240288,0.17352 0.634607,0.53454 0.202914,0.18578 0.251632,0.28396 0.353438,0.39292 0.0485,0.0519 0,0 0.18798,0.19738 1.220592,1.32332 2.249512,2.77338 3.076394,4.3357 0.25992,0.4911 0.507726,0.91479 0.550487,0.94118 0.04279,0.0265 0.07745,0.10026 0.07745,0.16418 0,0.0952 0.577096,1.402 0.845219,1.91403 0.03834,0.0733 0.170771,0.39793 0.29424,0.72099 0.663399,1.73581 0.909842,2.56069 0.924624,3.09491 z M 22.388388,25.164811 c -0.0179,0.0537 -0.16323,0.12454 -0.32298,0.15735 -0.42171,0.0865 -3.46518,0.25439 -3.55917,0.19632 -0.13792,-0.0853 -0.0858,-0.57888 0.0921,-0.87055 0.19549,-0.32062 0.74546,-0.60456 1.17551,-0.60748 0.66115,-0.004 2.69875,0.87192 2.61457,1.12436 z"
       sodipodi:nodetypes="csssaasssssccssaaaaasssssssaasccssssccccscsscsaaccccscsscccssscazzzzzzzzzscscscsccsssccszzzzzzzzzzzcccsssccscssccscccsscc" />
  </g>
  <g
     inkscape:groupmode="layer"
     id="layer8"
     inkscape:label="Layer 6"
     style="display:inline">
    <path
       id="path2796-4-7-9"
       style="display:inline;opacity:1;fill:url(#linearGradient1091);fill-opacity:1;stroke:none;stroke-width:0.085;stroke-miterlimit:4;stroke-dasharray:none;stroke-opacity:1"
       d="m 12.654508,48.783864 c 1.905657,0.988716 4.531287,1.94751 6.068911,2.156399 0.203161,0.02759 0.657916,0.106803 1.010324,0.176015 1.251601,0.245812 3.81122,0.464301 5.597322,0.477786 2.133453,0.01611 4.754958,-0.188163 7.093897,-0.5871 1.50897,-0.257375 2.987929,-0.685661 4.443437,-1.159729 2.28771,-0.745132 4.533183,-1.632069 6.717874,-2.640035 1.220649,-0.563181 2.397892,-1.243045 3.558184,-1.898378 1.357426,-0.766666 2.612484,-1.7779 3.963192,-2.599537 0.461706,-0.280856 1.022264,-0.747624 1.478468,-1.133117 0.223255,-0.188607 0.437049,-0.361812 0.634608,-0.522743 0.56886,-0.46336 -1.07493,0.942559 1.425166,-1.069562 2.931375,0.06085 3.008366,0.0962 4.336277,0.0074 0.315066,-0.01866 0.6923,-0.06108 0.838444,-0.09438 0.146152,-0.0333 0.395697,-0.07419 0.554598,-0.09095 0.482317,-0.05084 1.799424,-0.469286 2.609026,-0.908024 0.665684,-0.360738 1.252906,-0.862842 1.796772,-1.389607 0.439537,-0.425678 0.845388,-0.896003 1.168791,-1.415429 0.38572,-0.619504 0.643588,-1.312539 0.899751,-1.995866 0.04107,-0.109516 0.07736,-0.221437 0.101618,-0.335854 0.03101,-0.146124 0.12228,-0.218447 0.05547,-0.444721 -0.09474,-0.320857 -0.175284,-0.978049 -0.30151,-1.291743 -0.3468,-0.861857 -0.964196,-1.603902 -1.565534,-2.299031 -0.631277,-0.729706 -1.457086,-1.317502 -2.343104,-1.699623 -2.692054,-1.161152 -5.577221,-2.136989 -8.509522,-2.545499 -1.243432,-0.173225 -2.545499,-0.322029 -3.794972,-0.335748 -0.900902,-0.0099 -1.750329,0.112034 -2.644876,0.05452 -0.547173,-0.03519 -1.096242,0.04442 -1.6421,0.09611 -0.593636,0.05621 -1.181172,0.16554 -1.773685,0.232518 -0.569942,0.06442 -1.147054,0.06958 -1.712994,0.162819 -1.333321,0.219669 -2.773309,0.727379 -4.079929,1.076958 -2.116235,0.180816 -4.694157,1.455197 -6.182086,2.238311 -0.511753,0.272669 -1.909309,0.921353 -2.397432,1.234368 -0.448909,0.287886 -0.898203,0.433056 -1.272814,0.67302 -1.861997,1.192732 -2.893007,1.997159 -4.46597,3.061158 -0.0042,0.0026 -0.0083,0.0054 -0.01237,0.0081 -0.725792,0.491144 -1.29824,0.961483 -1.960167,1.424262 -0.609602,0.413538 -1.199225,0.800573 -1.718353,1.261363 -0.09482,0.0538 -0.130568,0.176954 -0.319565,0.116727 -2.374647,-0.08654 -3.569883,-0.234931 -4.364603,-0.127914 -1.25072,0.166484 -1.719445,0.262225 -1.990357,0.406478 -0.09947,0.05294 -0.255778,0.102095 -0.347222,0.109548 -0.226865,0.01852 -1.510376,0.661341 -2.048227,1.025837 -0.833439,0.564794 -2.5093754,2.613602 -2.5652784,3.135729 -0.0083,0.07763 -0.08453,0.248517 -0.169489,0.379597 -0.376933,0.582024 -0.557466,1.684369 -0.401992,2.453678 0.216506,1.071318 1.018086,2.066003 1.7960744,2.892185 0.681841,0.724084 1.552851,1.265396 2.435683,1.723437 z m 2.196647,-6.455055 C 14.7117,42.220975 14.620985,41.96607 14.627594,41.65812 c 0.0062,-0.289382 0.06605,-0.41137 0.373401,-0.760599 0.299226,-0.339814 0.48035,-0.469036 0.991395,-0.706851 0.343929,-0.160097 0.76977,-0.323448 0.94626,-0.362732 0.17647,-0.03929 0.339306,-0.05515 0.362037,-0.03548 0.0816,0.07142 -0.221259,0.463389 -1.17154,1.517403 -0.770657,0.854803 -0.99959,1.073978 -1.124029,1.07439 -0.05549,1.91e-4 -0.107487,-0.01951 -0.15398,-0.05545 z m 1.604546,1.468823 0.697201,-0.681375 c 0.427795,-0.474889 1.094801,-0.997787 1.787685,-1.598011 0.496442,-0.430115 1.184808,-0.971856 1.755885,-1.404073 0.159313,-0.07998 0.744821,0.103399 1.114242,0.172554 0.483795,0.09056 0.958508,0.201554 1.44213,0.317136 0.483624,0.115579 1.091098,0.338942 1.459007,0.376786 0.36791,0.03784 0.511903,0.083 0.711427,-0.03399 0.199553,-0.116963 0.317833,-0.37921 0.39842,-0.541749 0.08062,-0.162504 0.128188,-0.278748 0.113242,-0.503736 -0.01495,-0.224985 0.01019,-0.502728 0.02094,-0.687434 0.01075,-0.184711 0.03901,-0.299226 0.03621,-0.42082 -0.0028,-0.121615 0.01097,-0.192583 -0.04041,-0.304651 -0.05139,-0.112071 -0.1083,-0.236287 -0.287703,-0.322804 -0.179399,-0.08651 -0.980695,-0.382733 -1.328248,-0.544738 -0.117576,-0.0548 -0.06599,-0.09687 -0.112196,-0.122803 0.103297,-0.117438 0.09715,-0.15895 0.217701,-0.270168 0.245456,-0.226519 0.639529,-0.507017 0.915685,-0.659104 2.178025,-1.177277 4.166151,-2.691103 6.24679,-3.814858 3.922135,-2.118342 7.904972,-3.420012 11.509215,-3.998163 5.742258,-0.921106 10.942116,1.101438 13.69769,2.453575 0.176932,0.117535 0.537549,0.261976 0.9202,0.450059 0.720153,0.353999 1.668044,0.928085 1.623623,1.108793 -0.0475,0.174917 -0.09745,0.267506 -0.275623,0.427934 -0.10748,0.09475 -0.330282,0.30214 -0.454358,0.405144 -0.26163,0.217223 -0.571922,0.488766 -0.995112,0.83225 -0.350286,0.284243 -0.779436,0.609194 -1.308316,1.070376 -0.403609,0.35199 -0.662213,0.483032 -1.127468,0.895367 0,0 -0.206122,0.23582 -0.338019,0.180037 -0.719127,-0.304169 -2.307325,-0.961828 -2.953118,-1.196411 -0.645794,-0.234583 -0.639373,-0.239942 -0.891046,-0.287333 -0.251673,-0.04739 -0.43043,-0.09276 -0.599245,-0.03616 -0.16885,0.05656 -0.26887,0.167046 -0.355851,0.303949 -0.08698,0.136903 -0.08832,0.307081 -0.133997,0.48707 -0.04566,0.180007 -0.09667,0.404274 -0.138,0.593148 -0.04133,0.188875 -0.08199,0.355949 -0.110619,0.539891 -0.02863,0.183939 -0.05481,0.420536 -0.06029,0.562567 -0.0055,0.142065 -0.0086,0.160696 0.0084,0.28683 0.01707,0.126104 -0.03174,0.351114 0.112846,0.463232 0.144625,0.112098 0.43475,0.239717 0.737922,0.337856 0.303172,0.09814 0.530578,0.14536 0.956186,0.424469 0.04772,0.193493 -0.274556,0.260414 -1.513937,1.236709 -2.96632,2.360966 -7.593976,4.487089 -11.696329,6.047394 -1.697873,0.645772 -3.488905,1.04721 -5.280571,1.346738 -0.839163,0.140287 -1.69609,0.137046 -2.543931,0.20799 -0.275613,0.02306 -0.292607,0.04721 -0.826712,0.07076 -0.274849,0.01211 -0.378721,-0.02286 -0.527756,-0.02792 -0.07099,-0.0024 0,0 -0.27249,-0.0066 -1.798817,-0.07264 -3.551722,-0.370429 -5.241142,-0.890463 -0.531051,-0.16347 -1.00587,-0.287839 -1.054768,-0.276262 -0.04899,0.01152 -0.12566,-0.01613 -0.170858,-0.06133 -0.06732,-0.06732 -1.399432,-0.583295 -1.951084,-0.755764 -0.07894,-0.02472 -0.402134,-0.160624 -0.717876,-0.301757 -1.696497,-0.758307 -2.454036,-1.167326 -2.842239,-1.534624 z m 41.53673,-6.866379 c -0.02531,-0.05063 0.02736,-0.203483 0.117117,-0.339643 0.237029,-0.359359 2.270371,-2.630133 2.377894,-2.655533 0.15784,-0.03721 0.469999,0.34866 0.550447,0.680697 0.08848,0.364944 -0.09963,0.954608 -0.401658,1.260764 -0.464675,0.470332 -2.524843,1.291762 -2.643823,1.053738 z"
       sodipodi:nodetypes="csssaasssssccssaaaaasssssssaasccssssccccscsscsaaccccscsscccssscazzzzzzzzzscscscsccsssccszzzzzzzzzzzcccsssccscssccscccsscc" />
  </g>
</svg>
